<?xml version="1.0" encoding="UTF-8" standalone="no"?>
<svg
   viewBox="0 0 680 200"
   role="img"
   color="#1f2937"
   version="1.1"
   id="svg11"
   sodipodi:docname="eventful-logo.svg"
   xml:space="preserve"
   inkscape:version="1.4.3 (0d15f75, 2025-12-25)"
   width="680"
   height="200"
   xmlns:inkscape="http://www.inkscape.org/namespaces/inkscape"
   xmlns:sodipodi="http://sodipodi.sourceforge.net/DTD/sodipodi-0.dtd"
   xmlns="http://www.w3.org/2000/svg"
   xmlns:svg="http://www.w3.org/2000/svg"
   xmlns:rdf="http://www.w3.org/1999/02/22-rdf-syntax-ns#"
   xmlns:cc="http://creativecommons.org/ns#"
   xmlns:dc="http://purl.org/dc/elements/1.1/"><defs
     id="defs11" /><sodipodi:namedview
     id="namedview11"
     pagecolor="#ffffff"
     bordercolor="#666666"
     borderopacity="1.0"
     inkscape:showpageshadow="2"
     inkscape:pageopacity="0.0"
     inkscape:pagecheckerboard="0"
     inkscape:deskcolor="#d1d1d1"
     inkscape:zoom="1.2644733"
     inkscape:cx="389.88565"
     inkscape:cy="175.96259"
     inkscape:window-width="2560"
     inkscape:window-height="1369"
     inkscape:window-x="2552"
     inkscape:window-y="-8"
     inkscape:window-maximized="1"
     inkscape:current-layer="svg11" /><title
     id="title1">Eventful</title><desc
     id="desc1">Eventful logo — a circular sweep mark with event-ping dots beside the wordmark</desc><path
     style="font-stretch:condensed;font-size:171.91px;font-family:'Barlow Condensed';-inkscape-font-specification:'Barlow Condensed,  Condensed';letter-spacing:-2;fill:#47c559;stroke-width:1.79578"
     d="m 250.12205,43.347435 q 0,1.7191 -1.7191,1.7191 h -39.88313 q -0.68764,0 -0.68764,0.68764 v 42.633681 q 0,0.68764 0.68764,0.68764 h 25.09887 q 1.7191,0 1.7191,1.7191 v 7.39213 q 0,1.7191 -1.7191,1.7191 h -25.09887 q -0.68764,0 -0.68764,0.687644 v 42.80559 q 0,0.68764 0.68764,0.68764 h 39.88313 q 1.7191,0 1.7191,1.7191 v 7.22022 q 0,1.7191 -1.7191,1.7191 h -51.05728 q -1.7191,0 -1.7191,-1.7191 V 36.127215 q 0,-1.7191 1.7191,-1.7191 h 51.05728 q 1.7191,0 1.7191,1.7191 z M 282.5042,154.74512 q -1.54719,0 -1.89101,-1.54719 l -21.31684,-83.548265 -0.17191,-0.68764 q 0,-1.20337 1.54719,-1.20337 h 9.97078 q 1.54719,0 1.89101,1.54719 l 14.78426,65.153895 q 0.17191,0.51573 0.34382,0.51573 0.17191,0 0.34382,-0.51573 l 14.61235,-65.153895 q 0.34382,-1.54719 1.89101,-1.54719 l 9.97078,0.17191 q 0.85955,0 1.20337,0.51573 0.51573,0.51573 0.17191,1.37528 l -21.14493,83.376355 q -0.17191,1.54719 -1.89101,1.54719 z m 96.8482,-40.57076 q 0,1.7191 -1.7191,1.7191 h -39.19548 q -0.68764,0 -0.68764,0.68764 v 12.54943 q 0,7.22022 3.95393,11.86179 4.12584,4.46966 10.65842,4.46966 5.50112,0 9.28314,-3.26629 3.95393,-3.4382 5.1573,-8.76741 0.51573,-1.54719 1.89101,-1.54719 l 8.5955,0.34382 q 0.68764,0 1.20337,0.51573 0.51573,0.51573 0.34382,1.37528 -1.37528,10.14269 -8.42359,16.15954 -6.8764,5.84494 -18.05055,5.84494 -12.20561,0 -19.59774,-7.22022 -7.22022,-7.22022 -7.22022,-19.08201 V 92.685606 q 0,-11.68988 7.22022,-18.910101 7.39213,-7.39213 19.59774,-7.39213 12.37752,0 19.59774,7.39213 7.39213,7.220221 7.39213,18.910101 z M 352.36253,77.041796 q -6.53258,0 -10.65842,4.64157 -3.95393,4.46966 -3.95393,11.86179 v 11.517974 q 0,0.68764 0.68764,0.68764 h 28.19324 q 0.68764,0 0.68764,-0.68764 V 93.545156 q 0,-7.39213 -4.12584,-11.86179 -4.12584,-4.64157 -10.83033,-4.64157 z m 73.98416,-10.486511 q 10.48651,0 16.15954,7.22022 5.84494,7.220221 5.84494,20.113471 v 59.137044 q 0,1.7191 -1.7191,1.7191 h -8.76741 q -1.7191,0 -1.7191,-1.7191 V 94.920436 q 0,-8.42359 -3.78202,-13.06516 -3.61011,-4.64157 -10.14269,-4.64157 -6.8764,0 -10.83033,4.98539 -3.78202,4.98539 -3.78202,13.58089 v 57.246034 q 0,1.7191 -1.7191,1.7191 h -8.76741 q -1.7191,0 -1.7191,-1.7191 V 69.477755 q 0,-1.7191 1.7191,-1.7191 h 8.76741 q 1.7191,0 1.7191,1.7191 v 5.50112 q 0,0.34382 0.34382,0.51573 0.34382,0.171911 0.51573,-0.34382 3.09438,-4.29775 7.73595,-6.36067 4.81348,-2.23483 10.14269,-2.23483 z m 70.54598,8.5955 q 0,1.719101 -1.7191,1.719101 h -13.06516 q -0.68764,0 -0.68764,0.68764 v 52.604464 q 0,7.90786 2.75056,11.00224 2.75056,2.92247 8.42359,2.75056 h 1.7191 q 1.7191,0 1.7191,1.7191 v 7.39213 q 0,1.7191 -1.7191,1.7191 h -4.29775 q -10.14269,0 -15.4719,-4.29775 -5.1573,-4.46966 -5.1573,-16.67527 V 77.557526 q 0,-0.68764 -0.68764,-0.68764 h -6.70449 q -1.7191,0 -1.7191,-1.719101 v -5.67303 q 0,-1.7191 1.7191,-1.7191 h 6.70449 q 0.68764,0 0.68764,-0.68764 v -19.25392 q 0,-1.7191 1.7191,-1.7191 h 8.5955 q 1.7191,0 1.7191,1.7191 v 19.25392 q 0,0.68764 0.68764,0.68764 h 13.06516 q 1.7191,0 1.7191,1.7191 z m 40.97753,-31.45953 q -6.53258,0 -9.28314,4.46966 -2.75056,4.29775 -2.75056,13.58089 v 5.32921 q 0,0.68764 0.68764,0.68764 h 13.23707 q 1.7191,0 1.7191,1.7191 v 5.67303 q 0,1.719101 -1.7191,1.719101 h -13.23707 q -0.68764,0 -0.68764,0.68764 v 75.468494 q 0,1.7191 -1.7191,1.7191 h -8.5955 q -1.7191,0 -1.7191,-1.7191 V 77.557526 q 0,-0.68764 -0.68764,-0.68764 h -6.8764 q -1.7191,0 -1.7191,-1.719101 v -5.67303 q 0,-1.7191 1.7191,-1.7191 h 6.8764 q 0.68764,0 0.68764,-0.68764 v -5.50112 q 0,-14.95617 5.50112,-21.66066 5.50112,-6.70449 18.39437,-6.70449 h 2.40674 q 1.7191,0 1.7191,1.7191 l -0.17191,7.04831 q 0,1.7191 -1.7191,1.7191 z m 57.65284,25.7865 q 0,-1.7191 1.7191,-1.7191 h 8.76741 q 1.7191,0 1.7191,1.7191 v 83.548265 q 0,1.7191 -1.7191,1.7191 h -8.76741 q -1.7191,0 -1.7191,-1.7191 v -5.84494 q 0,-0.51573 -0.34382,-0.51573 -0.17191,0 -0.51573,0.34382 -5.32921,8.93932 -17.191,8.93932 -10.3146,0 -16.50336,-6.18876 -6.01685,-6.36067 -6.01685,-19.08201 V 69.477755 q 0,-1.7191 1.7191,-1.7191 h 8.76741 q 1.7191,0 1.7191,1.7191 v 58.449405 q 0,8.5955 3.4382,13.06516 3.61011,4.29775 10.3146,4.29775 6.8764,0 10.65842,-4.98539 3.95393,-4.98539 3.95393,-13.58089 z m 31.86623,85.267365 q -1.7191,0 -1.7191,-1.7191 V 36.127215 q 0,-1.7191 1.7191,-1.7191 h 8.76741 q 1.7191,0 1.7191,1.7191 V 153.02602 q 0,1.7191 -1.7191,1.7191 z"
     id="text10"
     aria-label="Eventful" /><metadata
     id="metadata11"><rdf:RDF><cc:Work
         rdf:about=""><dc:title>Eventful</dc:title></cc:Work></rdf:RDF></metadata><g
     id="g11"
     transform="matrix(1.4044739,0,0,1.4044739,-121.16789,-482.754)"><circle
       style="fill:none;stroke:#47c559;stroke-width:7.30054;stroke-linecap:square;stroke-miterlimit:100;stroke-dasharray:none;stroke-opacity:1"
       id="path11"
       cx="155.83496"
       cy="410.83563"
       r="41.914688" /><circle
       style="fill:#47c559;stroke:none;stroke-width:6;stroke-linecap:square;stroke-miterlimit:100;stroke-opacity:1"
       id="circle11"
       cx="155.83496"
       cy="410.83563"
       r="15.816866" /></g></svg>
